<svg width="44" height="44" fill="none" xmlns="http://www.w3.org/2000/svg"><path fill-rule="evenodd" clip-rule="evenodd" d="M22.163 1.484c11.49 0 20.805 9.103 20.805 20.333 0 11.23-9.315 20.332-20.805 20.332S1.357 33.046 1.357 21.817c0-11.23 9.315-20.333 20.806-20.333z" fill="#212A3A"/><path d="M24.54 25.728c.92-.29 2.1 1.913 3.354 2.755.942.639 1.663.501 1.663.501l3.345-.047s1.748-.105.921-1.457c-.068-.112-.484-1.002-2.489-2.833-2.096-1.915-1.812-1.605.712-4.916 1.538-2.019 2.153-3.251 1.96-3.776-.185-.506-1.314-.374-1.314-.374l-3.768.025c-.367 0-.678.111-.82.483-.003.004-.598 1.562-1.391 2.886-1.677 2.802-2.346 2.952-2.623 2.776-.637-.406-.476-1.628-.476-2.497 0-2.716.416-3.849-.815-4.141-.41-.098-.711-.161-1.76-.17-1.34-.02-2.479 0-3.124.308-.428.209-.757.667-.557.693.25.033.811.15 1.112.55.386.517.374 1.677.374 1.677s.22 3.198-.52 3.594c-.508.272-1.203-.283-2.699-2.827a23.511 23.511 0 01-1.34-2.74s-.112-.267-.314-.413c-.24-.173-.578-.229-.578-.229l-3.576.023s-.538.015-.735.245c-.175.205-.015.627-.015.627s2.802 6.45 5.974 9.7c2.908 2.983 6.213 2.785 6.213 2.785h1.497s.452-.05.683-.292c.216-.225.206-.648.206-.648s-.03-1.977.9-2.268z" fill="#fff"/></svg>