<svg width="326" height="133" fill="none" xmlns="http://www.w3.org/2000/svg"><g opacity=".3" fill="#fff"><path fill-rule="evenodd" clip-rule="evenodd" d="M163.458 12.044L167 15.586 165.586 17l-3.542-3.542A7.465 7.465 0 01157.5 15a7.5 7.5 0 117.5-7.5c0 1.643-.542 3.24-1.542 4.544zM157.5 2a5.506 5.506 0 00-5.5 5.5 5.506 5.506 0 005.5 5.5c3.032 0 5.5-2.468 5.5-5.5 0-3.033-2.468-5.5-5.5-5.5z"/><path d="M20.83 92.965l2.089 2.099L5.13 112.947l17.847 17.939-2.09 2.099L.952 112.947 20.83 92.965z"/></g></svg>